<svg width="24" height="24" viewBox="0 0 24 24" fill="none" xmlns="http://www.w3.org/2000/svg">
<path d="M20.5 8.42986C20.5 7.54395 20.0311 6.7242 19.2676 6.27503L13.2676 2.74562C12.4852 2.2854 11.5148 2.2854 10.7324 2.74562L4.73245 6.27503C3.96885 6.7242 3.5 7.54395 3.5 8.42987V15.5701C3.5 16.456 3.96885 17.2758 4.73245 17.725L10.7324 21.2544C11.5148 21.7146 12.4852 21.7146 13.2676 21.2544L19.2676 17.725C20.0311 17.2758 20.5 16.456 20.5 15.5701V8.42986Z" stroke="#FFD61B" stroke-width="2" stroke-linejoin="round"/>
<path d="M8 13V15M12 11V15V11ZM16 9V15V9Z" stroke="#FFD61B" stroke-width="2" stroke-linecap="round" stroke-linejoin="round"/>
</svg>
