<svg width="144" height="41" viewBox="0 0 144 41" fill="none" xmlns="http://www.w3.org/2000/svg">
<path d="M47.8717 31C47.725 31 47.6004 30.9487 47.4977 30.846C47.395 30.7433 47.3437 30.6187 47.3437 30.472V16.15C47.3437 15.9887 47.395 15.8567 47.4977 15.754C47.6004 15.6513 47.725 15.6 47.8717 15.6H53.7677C54.9117 15.6 55.909 15.7833 56.7597 16.15C57.6104 16.502 58.2704 17.0447 58.7397 17.778C59.209 18.4967 59.4437 19.3987 59.4437 20.484C59.4437 21.584 59.209 22.4933 58.7397 23.212C58.2704 23.916 57.6104 24.444 56.7597 24.796C55.909 25.148 54.9117 25.324 53.7677 25.324H50.4897V30.472C50.4897 30.6187 50.4384 30.7433 50.3357 30.846C50.2477 30.9487 50.123 31 49.9617 31H47.8717ZM50.4457 22.882H53.6577C54.5084 22.882 55.161 22.684 55.6157 22.288C56.0704 21.8773 56.2977 21.276 56.2977 20.484C56.2977 19.7507 56.085 19.164 55.6597 18.724C55.2344 18.2693 54.567 18.042 53.6577 18.042H50.4457V22.882ZM67.004 31C66.7693 31 66.586 30.9413 66.454 30.824C66.322 30.7067 66.2266 30.56 66.168 30.384L61.46 16.26C61.4306 16.1867 61.416 16.1207 61.416 16.062C61.416 15.93 61.46 15.82 61.548 15.732C61.636 15.644 61.746 15.6 61.878 15.6H63.814C64.0193 15.6 64.1733 15.6587 64.276 15.776C64.3933 15.8787 64.4666 15.9813 64.496 16.084L68.214 27.414L71.91 16.084C71.954 15.9813 72.0273 15.8787 72.13 15.776C72.2473 15.6587 72.4086 15.6 72.614 15.6H74.55C74.6673 15.6 74.77 15.644 74.858 15.732C74.9606 15.82 75.012 15.93 75.012 16.062C75.012 16.1207 74.9973 16.1867 74.968 16.26L70.26 30.384C70.2013 30.56 70.106 30.7067 69.974 30.824C69.842 30.9413 69.6586 31 69.424 31H67.004ZM78.1102 31C77.9635 31 77.8388 30.9487 77.7362 30.846C77.6335 30.7433 77.5822 30.6113 77.5822 30.45V28.91C77.5822 28.69 77.6262 28.514 77.7142 28.382C77.8022 28.25 77.8682 28.1547 77.9122 28.096L85.5682 18.196H78.3302C78.1688 18.196 78.0368 18.1447 77.9342 18.042C77.8462 17.9393 77.8022 17.8147 77.8022 17.668V16.15C77.8022 15.9887 77.8462 15.8567 77.9342 15.754C78.0368 15.6513 78.1688 15.6 78.3302 15.6H88.8462C89.0075 15.6 89.1395 15.6513 89.2422 15.754C89.3448 15.8567 89.3962 15.9887 89.3962 16.15V17.668C89.3962 17.844 89.3668 17.9907 89.3082 18.108C89.2495 18.2253 89.1835 18.3353 89.1102 18.438L81.6082 28.382H89.0882C89.2495 28.382 89.3815 28.4333 89.4842 28.536C89.5868 28.6387 89.6382 28.7707 89.6382 28.932V30.472C89.6382 30.6187 89.5868 30.7433 89.4842 30.846C89.3815 30.9487 89.2495 31 89.0882 31H78.1102ZM99.1013 31.22C97.7373 31.22 96.5786 30.9853 95.6253 30.516C94.6866 30.032 93.9679 29.35 93.4693 28.47C92.9706 27.5753 92.6919 26.5047 92.6333 25.258C92.6186 24.6567 92.6113 24.0113 92.6113 23.322C92.6113 22.6327 92.6186 21.9727 92.6333 21.342C92.6919 20.11 92.9706 19.0467 93.4693 18.152C93.9826 17.2573 94.7086 16.5753 95.6473 16.106C96.6006 15.622 97.7519 15.38 99.1013 15.38C100.099 15.38 100.993 15.512 101.785 15.776C102.577 16.04 103.252 16.4067 103.809 16.876C104.367 17.3307 104.799 17.866 105.107 18.482C105.415 19.098 105.577 19.7653 105.591 20.484C105.606 20.616 105.562 20.726 105.459 20.814C105.371 20.902 105.261 20.946 105.129 20.946H103.039C102.878 20.946 102.746 20.9093 102.643 20.836C102.541 20.748 102.467 20.6087 102.423 20.418C102.189 19.45 101.785 18.79 101.213 18.438C100.641 18.086 99.9299 17.91 99.0793 17.91C98.0966 17.91 97.3119 18.1887 96.7253 18.746C96.1386 19.2887 95.8233 20.1907 95.7793 21.452C95.7353 22.6547 95.7353 23.8867 95.7793 25.148C95.8233 26.4093 96.1386 27.3187 96.7253 27.876C97.3119 28.4187 98.0966 28.69 99.0793 28.69C99.9299 28.69 100.641 28.514 101.213 28.162C101.785 27.7953 102.189 27.1353 102.423 26.182C102.467 25.9767 102.541 25.8373 102.643 25.764C102.746 25.6907 102.878 25.654 103.039 25.654H105.129C105.261 25.654 105.371 25.698 105.459 25.786C105.562 25.874 105.606 25.984 105.591 26.116C105.577 26.8347 105.415 27.502 105.107 28.118C104.799 28.734 104.367 29.2767 103.809 29.746C103.252 30.2007 102.577 30.56 101.785 30.824C100.993 31.088 100.099 31.22 99.1013 31.22ZM115.218 31.22C113.913 31.22 112.791 31.0073 111.852 30.582C110.914 30.142 110.18 29.4747 109.652 28.58C109.124 27.6707 108.838 26.5413 108.794 25.192C108.78 24.5613 108.772 23.938 108.772 23.322C108.772 22.706 108.78 22.0753 108.794 21.43C108.838 20.0953 109.132 18.9807 109.674 18.086C110.217 17.1913 110.958 16.5167 111.896 16.062C112.85 15.6073 113.957 15.38 115.218 15.38C116.48 15.38 117.587 15.6073 118.54 16.062C119.494 16.5167 120.242 17.1913 120.784 18.086C121.327 18.9807 121.62 20.0953 121.664 21.43C121.694 22.0753 121.708 22.706 121.708 23.322C121.708 23.938 121.694 24.5613 121.664 25.192C121.62 26.5413 121.334 27.6707 120.806 28.58C120.278 29.4747 119.538 30.142 118.584 30.582C117.646 31.0073 116.524 31.22 115.218 31.22ZM115.218 28.69C116.172 28.69 116.949 28.4113 117.55 27.854C118.152 27.282 118.474 26.358 118.518 25.082C118.548 24.4367 118.562 23.8427 118.562 23.3C118.562 22.7427 118.548 22.1487 118.518 21.518C118.489 20.6673 118.328 19.978 118.034 19.45C117.756 18.9073 117.374 18.5187 116.89 18.284C116.406 18.0347 115.849 17.91 115.218 17.91C114.602 17.91 114.052 18.0347 113.568 18.284C113.084 18.5187 112.696 18.9073 112.402 19.45C112.124 19.978 111.97 20.6673 111.94 21.518C111.926 22.1487 111.918 22.7427 111.918 23.3C111.918 23.8427 111.926 24.4367 111.94 25.082C111.984 26.358 112.307 27.282 112.908 27.854C113.51 28.4113 114.28 28.69 115.218 28.69ZM126.247 31C126.086 31 125.954 30.9487 125.851 30.846C125.749 30.7433 125.697 30.6187 125.697 30.472V16.15C125.697 15.9887 125.749 15.8567 125.851 15.754C125.954 15.6513 126.086 15.6 126.247 15.6H127.985C128.191 15.6 128.345 15.6587 128.447 15.776C128.55 15.8787 128.616 15.9593 128.645 16.018L132.891 23.938L137.181 16.018C137.211 15.9593 137.277 15.8787 137.379 15.776C137.482 15.6587 137.636 15.6 137.841 15.6H139.557C139.719 15.6 139.851 15.6513 139.953 15.754C140.056 15.8567 140.107 15.9887 140.107 16.15V30.472C140.107 30.6187 140.056 30.7433 139.953 30.846C139.851 30.9487 139.719 31 139.557 31H137.709C137.548 31 137.416 30.9487 137.313 30.846C137.225 30.7433 137.181 30.6187 137.181 30.472V20.946L134.101 26.82C134.028 26.952 133.933 27.0693 133.815 27.172C133.698 27.26 133.544 27.304 133.353 27.304H132.451C132.246 27.304 132.085 27.26 131.967 27.172C131.865 27.0693 131.777 26.952 131.703 26.82L128.623 20.946V30.472C128.623 30.6187 128.572 30.7433 128.469 30.846C128.367 30.9487 128.242 31 128.095 31H126.247Z" fill="#FDDB3F"/>
<path d="M24.0025 35.0068L20.517 39.0742L17.1643 35.1429L17.0996 35.0669L17.0233 35.0021L11.1154 29.9744C5.97389 24.8697 5.98453 16.6209 11.1473 11.5291L11.69 10.9939C16.8634 5.89166 25.2512 5.89166 30.4246 10.9939C35.5981 16.0962 35.5981 24.3686 30.4246 29.4708L30.1852 29.707L24.1399 34.8697L24.0658 34.933L24.0025 35.0068Z" stroke="#FFD61B" stroke-width="2.5"/>
<rect x="2.76398" width="3.88206" height="3.88206" transform="matrix(0.711987 -0.702192 0.711987 0.702192 16.0772 22.2538)" fill="url(#paint0_diamond_2_818)" stroke="#FFD61B" stroke-width="3.88206"/>
<mask id="path-4-inside-1_2_818" fill="white">
<path d="M17.5767 29.4053L20.5602 27.4991L13.6247 20.659L11.6844 23.4016L17.5767 29.4053Z"/>
</mask>
<path d="M17.5767 29.4053L20.5602 27.4991L13.6247 20.659L11.6844 23.4016L17.5767 29.4053Z" fill="url(#paint1_linear_2_818)"/>
<path d="M17.5767 29.4053L43.2383 68.4706L10.6613 89.2853L-16.3351 61.7785L17.5767 29.4053ZM20.5602 27.4991L53.933 -5.41462L95.1911 35.2759L46.2217 66.5644L20.5602 27.4991ZM13.6247 20.659L-25.0811 -5.97584L7.15819 -51.5459L46.9975 -12.2547L13.6247 20.659ZM11.6844 23.4016L-22.2274 55.7748L-49.2725 28.2185L-27.0214 -3.23329L11.6844 23.4016ZM-8.08479 -9.66006L-5.10138 -11.5663L46.2217 66.5644L43.2383 68.4706L-8.08479 -9.66006ZM-12.8126 60.4127L-19.7481 53.5727L46.9975 -12.2547L53.933 -5.41462L-12.8126 60.4127ZM52.3305 47.2939L50.3903 50.0364L-27.0214 -3.23329L-25.0811 -5.97584L52.3305 47.2939ZM45.5963 -8.9717L51.4886 -2.96801L-16.3351 61.7785L-22.2274 55.7748L45.5963 -8.9717Z" fill="#FFD61B" mask="url(#path-4-inside-1_2_818)"/>
<mask id="path-6-inside-2_2_818" fill="white">
<path d="M24.2088 29.4053L21.2254 27.4991L28.1608 20.659L30.1011 23.4016L24.2088 29.4053Z"/>
</mask>
<path d="M24.2088 29.4053L21.2254 27.4991L28.1608 20.659L30.1011 23.4016L24.2088 29.4053Z" fill="url(#paint2_linear_2_818)"/>
<path d="M24.2088 29.4053L-1.45276 68.4706L31.1242 89.2853L58.1207 61.7785L24.2088 29.4053ZM21.2254 27.4991L-12.1474 -5.41462L-53.4056 35.2759L-4.43617 66.5644L21.2254 27.4991ZM28.1608 20.659L66.8667 -5.97584L34.6273 -51.5459L-5.21198 -12.2547L28.1608 20.659ZM30.1011 23.4016L64.013 55.7748L91.0581 28.2185L68.8069 -3.23329L30.1011 23.4016ZM49.8703 -9.66006L46.8869 -11.5663L-4.43617 66.5644L-1.45276 68.4706L49.8703 -9.66006ZM54.5982 60.4127L61.5336 53.5727L-5.21198 -12.2547L-12.1474 -5.41462L54.5982 60.4127ZM-10.545 47.2939L-8.60475 50.0364L68.8069 -3.23329L66.8667 -5.97584L-10.545 47.2939ZM-3.8108 -8.9717L-9.70311 -2.96801L58.1207 61.7785L64.013 55.7748L-3.8108 -8.9717Z" fill="#FFD61B" mask="url(#path-6-inside-2_2_818)"/>
<mask id="path-8-inside-3_2_818" fill="white">
<path d="M17.5767 11.2275L20.5602 13.1338L13.6247 19.9738L11.6844 17.2312L17.5767 11.2275Z"/>
</mask>
<path d="M17.5767 11.2275L20.5602 13.1338L13.6247 19.9738L11.6844 17.2312L17.5767 11.2275Z" fill="url(#paint3_linear_2_818)"/>
<path d="M17.5767 11.2275L43.2383 -27.8378L10.6613 -48.6524L-16.3351 -21.1457L17.5767 11.2275ZM20.5602 13.1338L53.933 46.0474L95.1911 5.35687L46.2217 -25.9316L20.5602 13.1338ZM13.6247 19.9738L-25.0811 46.6087L7.15819 92.1787L46.9975 52.8875L13.6247 19.9738ZM11.6844 17.2312L-22.2274 -15.142L-49.2725 12.4143L-27.0214 43.8661L11.6844 17.2312ZM-8.08479 50.2929L-5.10138 52.1991L46.2217 -25.9316L43.2383 -27.8378L-8.08479 50.2929ZM-12.8126 -19.7799L-19.7481 -12.9399L46.9975 52.8875L53.933 46.0474L-12.8126 -19.7799ZM52.3305 -6.66106L50.3903 -9.40362L-27.0214 43.8661L-25.0811 46.6087L52.3305 -6.66106ZM45.5963 49.6045L51.4886 43.6008L-16.3351 -21.1457L-22.2274 -15.142L45.5963 49.6045Z" fill="#FFD61B" mask="url(#path-8-inside-3_2_818)"/>
<mask id="path-10-inside-4_2_818" fill="white">
<path d="M24.2088 11.2275L21.2254 13.1338L28.1608 19.9738L30.1011 17.2312L24.2088 11.2275Z"/>
</mask>
<path d="M24.2088 11.2275L21.2254 13.1338L28.1608 19.9738L30.1011 17.2312L24.2088 11.2275Z" fill="url(#paint4_linear_2_818)"/>
<path d="M24.2088 11.2275L-1.45276 -27.8378L31.1242 -48.6524L58.1207 -21.1457L24.2088 11.2275ZM21.2254 13.1338L-12.1474 46.0474L-53.4056 5.35687L-4.43617 -25.9316L21.2254 13.1338ZM28.1608 19.9738L66.8667 46.6087L34.6273 92.1787L-5.21198 52.8875L28.1608 19.9738ZM30.1011 17.2312L64.013 -15.142L91.0581 12.4143L68.8069 43.8661L30.1011 17.2312ZM49.8703 50.2929L46.8869 52.1991L-4.43617 -25.9316L-1.45276 -27.8378L49.8703 50.2929ZM54.5982 -19.7799L61.5336 -12.9399L-5.21198 52.8875L-12.1474 46.0474L54.5982 -19.7799ZM-10.545 -6.66106L-8.60475 -9.40362L68.8069 43.8661L66.8667 46.6087L-10.545 -6.66106ZM-3.8108 49.6045L-9.70311 43.6008L58.1207 -21.1457L64.013 -15.142L-3.8108 49.6045Z" fill="#FFD61B" mask="url(#path-10-inside-4_2_818)"/>
<defs>
<radialGradient id="paint0_diamond_2_818" cx="0" cy="0" r="1" gradientUnits="userSpaceOnUse" gradientTransform="translate(3.88206 3.88206) rotate(90) scale(3.88206)">
<stop stop-color="#A6A6A6"/>
<stop offset="1" stop-color="#A6A6A6"/>
</radialGradient>
<linearGradient id="paint1_linear_2_818" x1="17.5233" y1="24.7199" x2="15.3128" y2="26.9613" gradientUnits="userSpaceOnUse">
<stop stop-color="#A6A6A6"/>
<stop offset="1" stop-color="#A6A6A6"/>
</linearGradient>
<linearGradient id="paint2_linear_2_818" x1="24.2477" y1="24.318" x2="26.2573" y2="26.3556" gradientUnits="userSpaceOnUse">
<stop stop-color="#A6A6A6"/>
<stop offset="1" stop-color="#A6A6A6"/>
</linearGradient>
<linearGradient id="paint3_linear_2_818" x1="17.7271" y1="16.2789" x2="15.5166" y2="14.0375" gradientUnits="userSpaceOnUse">
<stop stop-color="#A6A6A6"/>
<stop offset="1" stop-color="#A6A6A6"/>
</linearGradient>
<linearGradient id="paint4_linear_2_818" x1="24.6552" y1="16.6809" x2="26.8658" y2="14.4395" gradientUnits="userSpaceOnUse">
<stop stop-color="#A7A7A7"/>
<stop offset="1" stop-color="#A6A6A6"/>
</linearGradient>
</defs>
</svg>
